<svg xmlns="http://www.w3.org/2000/svg" width="445" height="639" viewBox="0 0 445 639"><defs><clipPath id="yu6qa"><path d="M5 0h434.969a5 5 0 0 1 5 5v629a5 5 0 0 1-5 5H5a5 5 0 0 1-5-5V5a5 5 0 0 1 5-5z"/></clipPath></defs><g><g><g><path fill="#44444f" d="M5 0h434.969a5 5 0 0 1 5 5v629a5 5 0 0 1-5 5H5a5 5 0 0 1-5-5V5a5 5 0 0 1 5-5z"/></g><g clip-path="url(#yu6qa)"><path fill="#65e496" d="M376.051 536.046l165.419-165.39c12.008-12.007 31.478-12.007 43.486 0 12.008 12.005 12.008 31.472 0 43.478L419.537 579.526c-12.008 12.005-31.478 12.005-43.486 0-12.008-12.007-12.008-31.473 0-43.48z"/></g><g clip-path="url(#yu6qa)"><path fill="#65e496" d="M295.258 490.23l165.419-165.39c12.008-12.006 31.478-12.006 43.486 0 12.009 12.007 12.009 31.473 0 43.48L338.745 533.71c-12.009 12.007-31.478 12.007-43.487 0-12.008-12.006-12.008-31.473 0-43.48z"/></g><g clip-path="url(#yu6qa)"><path fill="#3d3d47" d="M0 0h62.719v639H0z"/></g></g></g></svg>